<svg width="166" height="100" viewBox="0 0 166 100" fill="none" xmlns="http://www.w3.org/2000/svg">
<path d="M77.3071 65.2423C78.4741 67.745 77.3914 70.7199 74.8887 71.8869V71.8869C72.386 73.0539 69.4111 71.9712 68.244 69.4685L47.1131 24.1531C45.9461 21.6504 47.0289 18.6755 49.5316 17.5084V17.5084C52.0343 16.3414 55.0092 17.4242 56.1762 19.9269L77.3071 65.2423Z" fill="#50D890"/>
<path d="M76.5603 63.1256C78.6757 64.9006 78.9516 68.0544 77.1766 70.1698V70.1698C75.4016 72.2851 72.2478 72.5611 70.1324 70.7861L31.8302 38.6467C29.7148 36.8717 29.4389 33.7179 31.2139 31.6025V31.6025C32.9889 29.4871 36.1427 29.2112 38.2581 30.9862L76.5603 63.1256Z" fill="#50D890"/>
<path d="M74.7141 60.0466C77.3814 60.7614 78.9644 63.503 78.2496 66.1704V66.1704C77.5349 68.8377 74.7933 70.4206 72.1259 69.7059L23.8296 56.765C21.1623 56.0502 19.5794 53.3086 20.2941 50.6412V50.6412C21.0088 47.9739 23.7505 46.391 26.4178 47.1057L74.7141 60.0466Z" fill="#50D890"/>
<path d="M79.2079 69C79.2079 71.7614 76.9693 74 74.2079 74V74C71.4465 74 69.2079 71.7614 69.2079 69L69.2079 19C69.2079 16.2386 71.4465 14 74.2079 14V14C76.9693 14 79.2079 16.2386 79.2079 19L79.2079 69Z" fill="#4F98CA"/>
<rect x="19" y="74.034" width="10" height="60" rx="5" transform="rotate(-90 19 74.034)" fill="#4F98CA"/>
<path d="M99.1482 72.9505C96.6455 74.1176 93.6706 73.0348 92.5036 70.5321V70.5321C91.3366 68.0294 92.4194 65.0545 94.9221 63.8875L140.237 42.7566C142.74 41.5895 145.715 42.6723 146.882 45.175V45.175C148.049 47.6777 146.966 50.6526 144.464 51.8196L99.1482 72.9505Z" fill="#50D890"/>
<path d="M101.265 72.2038C99.4899 74.3191 96.3361 74.595 94.2208 72.82V72.82C92.1054 71.045 91.8295 67.8912 93.6045 65.7759L125.744 27.4737C127.519 25.3583 130.673 25.0824 132.788 26.8574V26.8574C134.903 28.6324 135.179 31.7862 133.404 33.9015L101.265 72.2038Z" fill="#50D890"/>
<path d="M104.344 70.3575C103.629 73.0249 100.887 74.6078 98.2202 73.8931V73.8931C95.5528 73.1784 93.9699 70.4367 94.6846 67.7694L107.626 19.4731C108.34 16.8057 111.082 15.2228 113.749 15.9375V15.9375C116.417 16.6522 118 19.3939 117.285 22.0613L104.344 70.3575Z" fill="#50D890"/>
<path d="M95.3905 74.8513C92.6291 74.8513 90.3905 72.6127 90.3905 69.8513V69.8513C90.3905 67.0899 92.6291 64.8513 95.3905 64.8513L145.391 64.8513C148.152 64.8513 150.391 67.0899 150.391 69.8513V69.8513C150.391 72.6127 148.152 74.8513 145.391 74.8513L95.3905 74.8513Z" fill="#4F98CA"/>
<rect x="90.3566" y="14.6434" width="10" height="60" rx="5" fill="#4F98CA"/>
</svg>
